<?xml version="1.0" encoding="UTF-8" standalone="no"?>
<!DOCTYPE svg PUBLIC "-//W3C//DTD SVG 20010904//EN"
              "http://www.w3.org/TR/2001/REC-SVG-20010904/DTD/svg10.dtd">

<svg xmlns="http://www.w3.org/2000/svg"
     width="512px" height="512px"
     viewBox="0 0 512 512">
  <rect width="100%" height="100%" fill="none" />
  <path id="Selection #2"
        fill="white" stroke="white" stroke-width="10"
        d="M 238.00,273.00
           C 238.00,273.00 196.00,298.31 196.00,298.31
             196.00,298.31 125.00,341.05 125.00,341.05
             125.00,341.05 116.00,346.10 116.00,346.10
             109.17,350.22 101.18,356.20 93.02,351.15
             90.33,349.49 88.44,347.03 87.57,344.00
             86.91,341.72 87.00,338.41 87.00,336.00
             87.00,336.00 87.00,165.00 87.00,165.00
             87.00,162.59 86.91,159.28 87.57,157.00
             88.34,154.33 89.84,152.19 92.05,150.51
             99.07,145.20 105.61,149.15 112.00,152.62
             112.00,152.62 125.00,160.18 125.00,160.18
             125.00,160.18 158.00,179.59 158.00,179.59
             158.00,179.59 198.00,203.58 198.00,203.58
             198.00,203.58 238.00,227.00 238.00,227.00
             238.00,227.00 238.00,163.00 238.00,163.00
             238.21,145.58 254.47,145.28 260.72,152.13
             264.27,156.01 263.99,160.13 264.00,165.00
             264.00,165.00 264.00,226.00 264.00,226.00
             264.00,226.00 298.00,205.95 298.00,205.95
             298.00,205.95 338.00,181.95 338.00,181.95
             338.00,181.95 375.00,160.09 375.00,160.09
             383.23,155.00 397.18,144.79 406.98,150.85
             409.67,152.51 411.56,154.97 412.43,158.00
             413.09,160.28 413.00,163.59 413.00,166.00
             413.00,166.00 413.00,334.00 413.00,334.00
             413.00,336.41 413.09,339.71 412.43,342.00
             411.88,343.94 411.04,345.42 409.72,346.95
             399.24,359.18 384.11,345.89 374.00,340.30
             374.00,340.30 338.00,318.61 338.00,318.61
             338.00,318.61 294.00,292.72 294.00,292.72
             294.00,292.72 264.00,275.00 264.00,275.00
             264.00,275.00 264.00,336.00 264.00,336.00
             263.99,340.87 264.27,344.99 260.72,348.87
             254.47,355.72 238.21,355.42 238.00,338.00
             238.00,338.00 238.00,273.00 238.00,273.00 Z
           M 114.00,185.00
           C 114.00,185.00 113.00,199.00 113.00,199.00
             113.00,199.00 113.00,225.00 113.00,225.00
             113.00,225.00 113.00,317.00 113.00,317.00
             113.00,317.00 187.00,273.05 187.00,273.05
             187.00,273.05 224.00,251.00 224.00,251.00
             224.00,251.00 189.00,229.47 189.00,229.47
             189.00,229.47 133.00,196.05 133.00,196.05
             133.00,196.05 114.00,185.00 114.00,185.00 Z
           M 387.00,185.00
           C 380.22,186.98 355.51,202.78 348.00,207.47
             348.00,207.47 317.00,225.59 317.00,225.59
             317.00,225.59 276.00,250.00 276.00,250.00
             276.00,250.00 339.00,288.20 339.00,288.20
             339.00,288.20 369.00,306.29 369.00,306.29
             369.00,306.29 387.00,316.00 387.00,316.00
             387.00,316.00 387.00,185.00 387.00,185.00 Z" />
</svg>
